<svg xmlns="http://www.w3.org/2000/svg" width="1449.641" height="1128.167" viewBox="-72 -72 1087.231 846.125"><rect x="-72" y="-72" width="1087.231" height="846.125" fill="#fff"/><defs><style>@import url(https://cdn.jsdelivr.net/npm/node-tikzjax@1.0.5/css/fonts.css);</style></defs><g stroke="#000" stroke-miterlimit="10" stroke-width=".4"><g stroke="none"><g fill="#fff" stroke="#000" stroke-width=".7"><path d="M749.807-68.587H453.898a2.845 2.845 0 0 0-2.845 2.845v22.762a2.845 2.845 0 0 0 2.845 2.846h295.909a2.845 2.845 0 0 0 2.845-2.846v-22.762a2.845 2.845 0 0 0-2.845-2.845ZM451.053-40.134"/><g fill="#000" stroke="none"><text x="1164.749" y="-442.005" font-family="cmssbx10" font-size="12" transform="translate(-682.546 391.81)">TRANSIENT</text><text x="1242.049" y="-442.005" font-family="cmssbx10" font-size="12" transform="translate(-682.546 391.81)">LOSS</text><text x="1277.615" y="-442.005" font-family="cmssbx10" font-size="12" transform="translate(-682.546 391.81)">OF</text><text x="1298.881" y="-442.005" font-family="cmssbx10" font-size="12" transform="translate(-682.546 391.81)">CONSCIOUSNESS</text></g></g><g fill="#fff" stroke="#000" stroke-width=".6"><path d="M513.649 53.477h176.407V-2.496H513.65Z"/><g fill="#000" stroke="none"><text x="1163.869" y="-380.215" font-family="cmssbx10" font-size="8" transform="translate(-619.95 391.81)">CHARA</text><text x="1192.958" y="-380.215" font-family="cmssbx10" font-size="8" transform="translate(-619.95 391.81)">CTERIZE</text><text x="1231.192" y="-380.215" font-family="cmssbx10" font-size="8" transform="translate(-619.95 391.81)">THE</text><text x="1251.38" y="-380.215" font-family="cmssbx10" font-size="8" transform="translate(-619.95 391.81)">EVENT</text><text x="1180.93" y="-367.87" font-family="cmss8" font-size="8" transform="translate(-619.95 391.81)">p</text><text x="1185.555" y="-367.87" font-family="cmss8" font-size="8" transform="translate(-619.95 391.81)">osition/trigger</text><text x="1239.092" y="-367.87" font-family="cmss8" font-size="8" transform="translate(-619.95 391.81)">+</text><text x="1248.536" y="-367.87" font-family="cmss8" font-size="8" transform="translate(-619.95 391.81)">p</text><text x="1252.689" y="-367.87" font-family="cmss8" font-size="8" transform="translate(-619.95 391.81)">ro-</text><text x="1176.551" y="-358.37" font-family="cmss8" font-size="8" transform="translate(-619.95 391.81)">drome</text><text x="1201.454" y="-358.37" font-family="cmss8" font-size="8" transform="translate(-619.95 391.81)">+</text><text x="1210.898" y="-358.37" font-family="cmss8" font-size="8" transform="translate(-619.95 391.81)">witness</text><text x="1239.318" y="-358.37" font-family="cmss8" font-size="8" transform="translate(-619.95 391.81)">account</text><text x="1162.294" y="-348.87" font-family="cmss8" font-size="8" transform="translate(-619.95 391.81)">movements</text><text x="1205.066" y="-348.87" font-family="cmss8" font-size="8" transform="translate(-619.95 391.81)">+</text><text x="1214.511" y="-348.87" font-family="cmss8" font-size="8" transform="translate(-619.95 391.81)">recovery/confusion</text></g></g><g fill="#fff" stroke="#000" stroke-width=".6"><path d="m682.027 127.44-80.174-36.375-80.175 36.376 80.175 36.375Z"/><g fill="#000" stroke="none"><text x="1158.959" y="-267.12" font-family="cmss8" font-size="8" transform="translate(-588.652 391.81)">Estimate</text><text x="1192.925" y="-267.12" font-family="cmss8" font-size="8" transform="translate(-588.652 391.81)">the</text><text x="1206.995" y="-267.12" font-family="cmss8" font-size="8" transform="translate(-588.652 391.81)">clin-</text><text x="1164.629" y="-257.62" font-family="cmss8" font-size="8" transform="translate(-588.652 391.81)">ical</text><text x="1179.379" y="-257.62" font-family="cmss8" font-size="8" transform="translate(-588.652 391.81)">p</text><text x="1183.532" y="-257.62" font-family="cmss8" font-size="8" transform="translate(-588.652 391.81)">robabilit</text><text x="1212.463" y="-257.62" font-family="cmss8" font-size="8" transform="translate(-588.652 391.81)">y</text></g></g><g fill="#fff" stroke="#000" stroke-width=".6"><path d="M111.215 256.932h136.573v-55.528H111.215Z"/><g fill="#000" stroke="none"><text x="759.613" y="-176.315" font-family="cmssbx10" font-size="8" transform="translate(-600.033 391.81)">SYNCOPE</text><text x="731.936" y="-163.97" font-family="cmss8" font-size="8" transform="translate(-600.033 391.81)">Prolonged</text><text x="770.436" y="-163.97" font-family="cmss8" font-size="8" transform="translate(-600.033 391.81)">sitting</text><text x="795.362" y="-163.97" font-family="cmss8" font-size="8" transform="translate(-600.033 391.81)">o</text><text x="799.375" y="-163.97" font-family="cmss8" font-size="8" transform="translate(-600.033 391.81)">r</text><text x="805.111" y="-163.97" font-family="cmss8" font-size="8" transform="translate(-600.033 391.81)">stand-</text><text x="731.86" y="-154.47" font-family="cmss8" font-size="8" transform="translate(-600.033 391.81)">ing,</text><text x="747.721" y="-154.47" font-family="cmss8" font-size="8" transform="translate(-600.033 391.81)">esp</text><text x="759.382" y="-154.47" font-family="cmss8" font-size="8" transform="translate(-600.033 391.81)">ecially</text><text x="783.854" y="-154.47" font-family="cmss8" font-size="8" transform="translate(-600.033 391.81)">with</text><text x="801.979" y="-154.47" font-family="cmss8" font-size="8" transform="translate(-600.033 391.81)">p</text><text x="806.132" y="-154.47" font-family="cmss8" font-size="8" transform="translate(-600.033 391.81)">resyn-</text><text x="741.742" y="-144.97" font-family="cmss8" font-size="8" transform="translate(-600.033 391.81)">cop</text><text x="754.395" y="-144.97" font-family="cmss8" font-size="8" transform="translate(-600.033 391.81)">e,</text><text x="763.367" y="-144.97" font-family="cmss8" font-size="8" transform="translate(-600.033 391.81)">favo</text><text x="777.978" y="-144.97" font-family="cmss8" font-size="8" transform="translate(-600.033 391.81)">rs</text><text x="786.972" y="-144.97" font-family="cmss8" font-size="8" transform="translate(-600.033 391.81)">syncop</text><text x="811.189" y="-144.97" font-family="cmss8" font-size="8" transform="translate(-600.033 391.81)">e.</text></g></g><g fill="#fff" stroke="#000" stroke-width=".6"><path d="M533.566 256.932h136.573v-55.528H533.566Z"/><g fill="#000" stroke="none"><text x="1161.547" y="-176.315" font-family="cmssbx10" font-size="8" transform="translate(-600.033 391.81)">EPILEPTIC</text><text x="1207.313" y="-176.315" font-family="cmssbx10" font-size="8" transform="translate(-600.033 391.81)">SEIZURE</text><text x="1163.934" y="-163.97" font-family="cmss8" font-size="8" transform="translate(-600.033 391.81)">Lateral</text><text x="1191.337" y="-163.97" font-family="cmss8" font-size="8" transform="translate(-600.033 391.81)">tongue</text><text x="1218.295" y="-163.97" font-family="cmss8" font-size="8" transform="translate(-600.033 391.81)">injury</text><text x="1237.476" y="-163.97" font-family="cmss8" font-size="8" transform="translate(-600.033 391.81)">,</text><text x="1155.649" y="-154.47" font-family="cmss8" font-size="8" transform="translate(-600.033 391.81)">head</text><text x="1175.122" y="-154.47" font-family="cmss8" font-size="8" transform="translate(-600.033 391.81)">turning,</text><text x="1205.733" y="-154.47" font-family="cmss8" font-size="8" transform="translate(-600.033 391.81)">o</text><text x="1209.747" y="-154.47" font-family="cmss8" font-size="8" transform="translate(-600.033 391.81)">r</text><text x="1215.483" y="-154.47" font-family="cmss8" font-size="8" transform="translate(-600.033 391.81)">abno</text><text x="1232.358" y="-154.47" font-family="cmss8" font-size="8" transform="translate(-600.033 391.81)">rmal</text><text x="1158.991" y="-144.97" font-family="cmss8" font-size="8" transform="translate(-600.033 391.81)">p</text><text x="1163.616" y="-144.97" font-family="cmss8" font-size="8" transform="translate(-600.033 391.81)">osturing</text><text x="1194.986" y="-144.97" font-family="cmss8" font-size="8" transform="translate(-600.033 391.81)">favo</text><text x="1209.597" y="-144.97" font-family="cmss8" font-size="8" transform="translate(-600.033 391.81)">rs</text><text x="1218.591" y="-144.97" font-family="cmss8" font-size="8" transform="translate(-600.033 391.81)">seizure.</text></g></g><g fill="#fff" stroke="#000" stroke-width=".6"><path d="M825.41 255.377h136.573v-53.973H825.41Z"/><g fill="#000" stroke="none"><text x="1438.235" y="-176.315" font-family="cmssbx10" font-size="8" transform="translate(-600.033 391.81)">DIFFERENTIAL</text><text x="1501.113" y="-176.315" font-family="cmssbx10" font-size="8" transform="translate(-600.033 391.81)">DIA</text><text x="1515.735" y="-176.315" font-family="cmssbx10" font-size="8" transform="translate(-600.033 391.81)">GNOSES</text><text x="1444.541" y="-163.97" font-family="cmss8" font-size="8" transform="translate(-600.033 391.81)">F</text><text x="1449.166" y="-163.97" font-family="cmss8" font-size="8" transform="translate(-600.033 391.81)">unctional</text><text x="1484.403" y="-163.97" font-family="cmss8" font-size="8" transform="translate(-600.033 391.81)">event;</text><text x="1508.528" y="-163.97" font-family="cmss8" font-size="8" transform="translate(-600.033 391.81)">metab</text><text x="1530.834" y="-163.97" font-family="cmss8" font-size="8" transform="translate(-600.033 391.81)">olic</text><text x="1449.204" y="-154.47" font-family="cmss8" font-size="8" transform="translate(-600.033 391.81)">disturbance;</text><text x="1494.851" y="-154.47" font-family="cmss8" font-size="8" transform="translate(-600.033 391.81)">into</text><text x="1508.352" y="-154.47" font-family="cmss8" font-size="8" transform="translate(-600.033 391.81)">xication;</text><text x="1451.973" y="-144.97" font-family="cmss8" font-size="8" transform="translate(-600.033 391.81)">cereb</text><text x="1470.362" y="-144.97" font-family="cmss8" font-size="8" transform="translate(-600.033 391.81)">rovascula</text><text x="1502.816" y="-144.97" font-family="cmss8" font-size="8" transform="translate(-600.033 391.81)">r</text><text x="1508.552" y="-144.97" font-family="cmss8" font-size="8" transform="translate(-600.033 391.81)">disease.</text></g></g><g fill="#fff" stroke="#000" stroke-width=".6"><path d="M533.566 322.974h136.573V294.52H533.566Z"/><g fill="#000" stroke="none"><text x="1159.848" y="-81.064" font-family="cmss8" font-size="8" transform="translate(-600.033 391.81)">Reassess</text><text x="1192.854" y="-81.064" font-family="cmss8" font-size="8" transform="translate(-600.033 391.81)">the</text><text x="1206.923" y="-81.064" font-family="cmss8" font-size="8" transform="translate(-600.033 391.81)">p</text><text x="1211.076" y="-81.064" font-family="cmss8" font-size="8" transform="translate(-600.033 391.81)">robabilit</text><text x="1240.007" y="-81.064" font-family="cmss8" font-size="8" transform="translate(-600.033 391.81)">y</text></g></g><g fill="#fff" stroke="#000" stroke-width=".6"><path d="M111.215 389.015h136.573v-28.453H111.215Z"/><g fill="#000" stroke="none"><text x="735.707" y="-14.245" font-family="cmssbx10" font-size="8" transform="translate(-600.033 391.81)">PROBABLE</text><text x="783.518" y="-14.245" font-family="cmssbx10" font-size="8" transform="translate(-600.033 391.81)">SYNCOPE</text></g></g><g fill="#fff" stroke="#000" stroke-width=".6"><path d="M825.41 395.602h136.573v-32.127H825.41Z"/><g fill="#000" stroke="none"><text x="1453.957" y="-14.245" font-family="cmssbx10" font-size="8" transform="translate(-600.033 391.81)">PROBABLE</text><text x="1501.768" y="-14.245" font-family="cmssbx10" font-size="8" transform="translate(-600.033 391.81)">EPILEP-</text><text x="1467.79" y="-4.745" font-family="cmssbx10" font-size="8" transform="translate(-600.033 391.81)">TIC</text><text x="1484.757" y="-4.745" font-family="cmssbx10" font-size="8" transform="translate(-600.033 391.81)">SEIZURE</text></g></g><g fill="#fff" stroke="#000" stroke-width=".6"><path d="M91.298 498.219h176.407V433.19H91.298Z"/><g fill="#000" stroke="none"><text x="734.769" y="55.471" font-family="cmssbx10" font-size="8" transform="translate(-619.95 391.81)">CARDIA</text><text x="766.502" y="55.471" font-family="cmssbx10" font-size="8" transform="translate(-619.95 391.81)">C</text><text x="774.958" y="55.471" font-family="cmssbx10" font-size="8" transform="translate(-619.95 391.81)">EXAMINA</text><text x="813.78" y="55.471" font-family="cmssbx10" font-size="8" transform="translate(-619.95 391.81)">TION</text><text x="837.836" y="55.471" font-family="cmssbx10" font-size="8" transform="translate(-619.95 391.81)">+</text><text x="847.513" y="55.471" font-family="cmssbx10" font-size="8" transform="translate(-619.95 391.81)">ECG</text><text x="759.586" y="64.971" font-family="cmssbx10" font-size="8" transform="translate(-619.95 391.81)">BP</text><text x="773.908" y="64.971" font-family="cmssbx10" font-size="8" transform="translate(-619.95 391.81)">AND</text><text x="795.319" y="64.971" font-family="cmssbx10" font-size="8" transform="translate(-619.95 391.81)">HR</text><text x="810.13" y="64.971" font-family="cmssbx10" font-size="8" transform="translate(-619.95 391.81)">IN</text><text x="821.963" y="64.971" font-family="cmssbx10" font-size="8" transform="translate(-619.95 391.81)">THE</text><text x="755.935" y="74.471" font-family="cmssbx10" font-size="8" transform="translate(-619.95 391.81)">ST</text><text x="765.958" y="74.471" font-family="cmssbx10" font-size="8" transform="translate(-619.95 391.81)">ANDING</text><text x="802.235" y="74.471" font-family="cmssbx10" font-size="8" transform="translate(-619.95 391.81)">POSITION</text><text x="761.497" y="86.816" font-family="cmss8" font-size="8" transform="translate(-619.95 391.81)">after</text><text x="780.761" y="86.816" font-family="cmss8" font-size="8" transform="translate(-619.95 391.81)">5</text><text x="787.844" y="86.816" font-family="cmss8" font-size="8" transform="translate(-619.95 391.81)">min</text><text x="803.844" y="86.816" font-family="cmss8" font-size="8" transform="translate(-619.95 391.81)">supine</text><text x="828.907" y="86.816" font-family="cmsy8" font-size="8" transform="translate(-619.95 391.81)">!</text><text x="756.601" y="96.316" font-family="cmss8" font-size="8" transform="translate(-619.95 391.81)">at</text><text x="766.587" y="96.316" font-family="cmss8" font-size="8" transform="translate(-619.95 391.81)">1</text><text x="773.67" y="96.316" font-family="cmss8" font-size="8" transform="translate(-619.95 391.81)">and</text><text x="789.364" y="96.316" font-family="cmss8" font-size="8" transform="translate(-619.95 391.81)">3</text><text x="796.447" y="96.316" font-family="cmss8" font-size="8" transform="translate(-619.95 391.81)">min</text><text x="812.447" y="96.316" font-family="cmss8" font-size="8" transform="translate(-619.95 391.81)">standing</text></g></g><g fill="#fff" stroke="#000" stroke-width=".6"><path d="M805.492 498.219H981.9V433.19H805.492Z"/><g fill="#000" stroke="none"><text x="1464.052" y="55.471" font-family="cmssbx10" font-size="8" transform="translate(-619.95 391.81)">SEARCH</text><text x="1500.374" y="55.471" font-family="cmssbx10" font-size="8" transform="translate(-619.95 391.81)">F</text><text x="1505.019" y="55.471" font-family="cmssbx10" font-size="8" transform="translate(-619.95 391.81)">OR</text><text x="1519.83" y="55.471" font-family="cmssbx10" font-size="8" transform="translate(-619.95 391.81)">AN</text><text x="1534.885" y="55.471" font-family="cmssbx10" font-size="8" transform="translate(-619.95 391.81)">A</text><text x="1540.507" y="55.471" font-family="cmssbx10" font-size="8" transform="translate(-619.95 391.81)">CUTE</text><text x="1473.385" y="64.971" font-family="cmssbx10" font-size="8" transform="translate(-619.95 391.81)">PRO</text><text x="1490.741" y="64.971" font-family="cmssbx10" font-size="8" transform="translate(-619.95 391.81)">V</text><text x="1496.363" y="64.971" font-family="cmssbx10" font-size="8" transform="translate(-619.95 391.81)">OKING</text><text x="1526.53" y="64.971" font-family="cmssbx10" font-size="8" transform="translate(-619.95 391.81)">CA</text><text x="1537.774" y="64.971" font-family="cmssbx10" font-size="8" transform="translate(-619.95 391.81)">USE</text><text x="1445.196" y="77.316" font-family="cmss8" font-size="8" transform="translate(-619.95 391.81)">Glucose;</text><text x="1477.538" y="77.316" font-family="cmss8" font-size="8" transform="translate(-619.95 391.81)">so</text><text x="1485.282" y="77.316" font-family="cmss8" font-size="8" transform="translate(-619.95 391.81)">dium;</text><text x="1508.032" y="77.316" font-family="cmss8" font-size="8" transform="translate(-619.95 391.81)">calcium;</text><text x="1540.06" y="77.316" font-family="cmss8" font-size="8" transform="translate(-619.95 391.81)">magnesium;</text><text x="1440.242" y="86.816" font-family="cmss8" font-size="8" transform="translate(-619.95 391.81)">renal</text><text x="1460.256" y="86.816" font-family="cmss8" font-size="8" transform="translate(-619.95 391.81)">and</text><text x="1475.95" y="86.816" font-family="cmss8" font-size="8" transform="translate(-619.95 391.81)">liver</text><text x="1493.436" y="86.816" font-family="cmss8" font-size="8" transform="translate(-619.95 391.81)">function;</text><text x="1527.52" y="86.816" font-family="cmss8" font-size="8" transform="translate(-619.95 391.81)">to</text><text x="1534.603" y="86.816" font-family="cmss8" font-size="8" transform="translate(-619.95 391.81)">xicology</text><text x="1565.853" y="86.816" font-family="cmss8" font-size="8" transform="translate(-619.95 391.81)">if</text><text x="1573.312" y="86.816" font-family="cmss8" font-size="8" transform="translate(-619.95 391.81)">sus-</text><text x="1438.224" y="96.316" font-family="cmss8" font-size="8" transform="translate(-619.95 391.81)">p</text><text x="1442.849" y="96.316" font-family="cmss8" font-size="8" transform="translate(-619.95 391.81)">ected;</text><text x="1466.835" y="96.316" font-family="cmss8" font-size="8" transform="translate(-619.95 391.81)">CSF</text><text x="1484.682" y="96.316" font-family="cmss8" font-size="8" transform="translate(-619.95 391.81)">if</text><text x="1492.141" y="96.316" font-family="cmss8" font-size="8" transform="translate(-619.95 391.81)">CNS</text><text x="1511.127" y="96.316" font-family="cmss8" font-size="8" transform="translate(-619.95 391.81)">infection</text><text x="1544.266" y="96.316" font-family="cmss8" font-size="8" transform="translate(-619.95 391.81)">is</text><text x="1552.385" y="96.316" font-family="cmss8" font-size="8" transform="translate(-619.95 391.81)">susp</text><text x="1567.916" y="96.316" font-family="cmss8" font-size="8" transform="translate(-619.95 391.81)">ected.</text></g></g><g fill="#fff" stroke="#000" stroke-width=".6"><path d="M-68.637 600.835H67.936v-65.028H-68.637Z"/><g fill="#000" stroke="none"><text x="584.038" y="158.088" font-family="cmssbx10" font-size="8" transform="translate(-600.033 391.81)">REFLEX</text><text x="546.259" y="170.433" font-family="cmss8" font-size="8" transform="translate(-600.033 391.81)">T</text><text x="551.356" y="170.433" font-family="cmss8" font-size="8" transform="translate(-600.033 391.81)">ypical</text><text x="574.412" y="170.433" font-family="cmss8" font-size="8" transform="translate(-600.033 391.81)">trigger</text><text x="600.426" y="170.433" font-family="cmss8" font-size="8" transform="translate(-600.033 391.81)">and</text><text x="616.12" y="170.433" font-family="cmss8" font-size="8" transform="translate(-600.033 391.81)">autonomic</text><text x="551.543" y="179.933" font-family="cmss8" font-size="8" transform="translate(-600.033 391.81)">p</text><text x="555.696" y="179.933" font-family="cmss8" font-size="8" transform="translate(-600.033 391.81)">ro</text><text x="563.085" y="179.933" font-family="cmss8" font-size="8" transform="translate(-600.033 391.81)">drome:</text><text x="591.766" y="179.933" font-family="cmss8" font-size="8" transform="translate(-600.033 391.81)">pain/p</text><text x="615.058" y="179.933" font-family="cmss8" font-size="8" transform="translate(-600.033 391.81)">ro</text><text x="622.447" y="179.933" font-family="cmss8" font-size="8" transform="translate(-600.033 391.81)">cedure,</text><text x="559.803" y="189.433" font-family="cmss8" font-size="8" transform="translate(-600.033 391.81)">heat,</text><text x="580.317" y="189.433" font-family="cmss8" font-size="8" transform="translate(-600.033 391.81)">p</text><text x="584.47" y="189.433" font-family="cmss8" font-size="8" transform="translate(-600.033 391.81)">rolonged</text><text x="617.54" y="189.433" font-family="cmss8" font-size="8" transform="translate(-600.033 391.81)">stand-</text><text x="557.077" y="198.933" font-family="cmss8" font-size="8" transform="translate(-600.033 391.81)">ing,</text><text x="572.938" y="198.933" font-family="cmss8" font-size="8" transform="translate(-600.033 391.81)">nausea</text><text x="599.752" y="198.933" font-family="cmss8" font-size="8" transform="translate(-600.033 391.81)">o</text><text x="603.766" y="198.933" font-family="cmss8" font-size="8" transform="translate(-600.033 391.81)">r</text><text x="609.502" y="198.933" font-family="cmss8" font-size="8" transform="translate(-600.033 391.81)">sw</text><text x="618.33" y="198.933" font-family="cmss8" font-size="8" transform="translate(-600.033 391.81)">eating.</text></g></g><g fill="#fff" stroke="#000" stroke-width=".6"><path d="M111.215 591.335h136.573v-55.528H111.215Z"/><g fill="#000" stroke="none"><text x="749.613" y="158.088" font-family="cmssbx10" font-size="8" transform="translate(-600.033 391.81)">ORTHOST</text><text x="790.191" y="158.088" font-family="cmssbx10" font-size="8" transform="translate(-600.033 391.81)">A</text><text x="795.324" y="158.088" font-family="cmssbx10" font-size="8" transform="translate(-600.033 391.81)">TIC</text><text x="720.797" y="170.433" font-family="cmss8" font-size="8" transform="translate(-600.033 391.81)">Symptoms</text><text x="760.736" y="170.433" font-family="cmss8" font-size="8" transform="translate(-600.033 391.81)">on</text><text x="772.209" y="170.433" font-family="cmss8" font-size="8" transform="translate(-600.033 391.81)">standing</text><text x="804.898" y="170.433" font-family="cmss8" font-size="8" transform="translate(-600.033 391.81)">with</text><text x="823.023" y="170.433" font-family="cmss8" font-size="8" transform="translate(-600.033 391.81)">con-</text><text x="723.382" y="179.933" font-family="cmss8" font-size="8" transform="translate(-600.033 391.81)">co</text><text x="731.174" y="179.933" font-family="cmss8" font-size="8" transform="translate(-600.033 391.81)">rdant</text><text x="752.841" y="179.933" font-family="cmss8" font-size="8" transform="translate(-600.033 391.81)">BP</text><text x="766.771" y="179.933" font-family="cmss8" font-size="8" transform="translate(-600.033 391.81)">drop:</text><text x="789.313" y="179.933" font-family="cmss8" font-size="8" transform="translate(-600.033 391.81)">SBP</text><text x="807.966" y="179.933" font-family="cmsy8" font-size="8" transform="translate(-600.033 391.81)">¸</text><text x="817.438" y="179.933" font-family="cmr8" font-size="8" transform="translate(-600.033 391.81)">20</text><text x="828.771" y="179.933" font-family="cmss8" font-size="8" transform="translate(-600.033 391.81)">o</text><text x="832.785" y="179.933" font-family="cmss8" font-size="8" transform="translate(-600.033 391.81)">r</text><text x="722.304" y="189.433" font-family="cmss8" font-size="8" transform="translate(-600.033 391.81)">DBP</text><text x="742.374" y="189.433" font-family="cmsy8" font-size="8" transform="translate(-600.033 391.81)">¸</text><text x="751.696" y="189.433" font-family="cmr8" font-size="8" transform="translate(-600.033 391.81)">10</text><text x="763.029" y="189.433" font-family="cmss8" font-size="8" transform="translate(-600.033 391.81)">mmHg</text><text x="789.613" y="189.433" font-family="cmss8" font-size="8" transform="translate(-600.033 391.81)">within</text><text x="814.155" y="189.433" font-family="cmss8" font-size="8" transform="translate(-600.033 391.81)">3</text><text x="821.238" y="189.433" font-family="cmss8" font-size="8" transform="translate(-600.033 391.81)">min.</text></g></g><g fill="#fff" stroke="#000" stroke-width=".6"><path d="M291.068 591.335H427.64v-55.528H291.068Z"/><g fill="#000" stroke="none"><text x="940.71" y="158.088" font-family="cmssbx10" font-size="8" transform="translate(-600.033 391.81)">CARDIA</text><text x="972.443" y="158.088" font-family="cmssbx10" font-size="8" transform="translate(-600.033 391.81)">C</text><text x="911.444" y="170.433" font-family="cmss8" font-size="8" transform="translate(-600.033 391.81)">AF/°utter,</text><text x="953.18" y="170.433" font-family="cmss8" font-size="8" transform="translate(-600.033 391.81)">cy</text><text x="960.639" y="170.433" font-family="cmss8" font-size="8" transform="translate(-600.033 391.81)">anosis,</text><text x="987.1" y="170.433" font-family="cmss8" font-size="8" transform="translate(-600.033 391.81)">struc-</text><text x="907.601" y="179.933" font-family="cmss8" font-size="8" transform="translate(-600.033 391.81)">tural</text><text x="926.907" y="179.933" font-family="cmss8" font-size="8" transform="translate(-600.033 391.81)">disease,</text><text x="956.673" y="179.933" font-family="cmss8" font-size="8" transform="translate(-600.033 391.81)">ECG</text><text x="975.701" y="179.933" font-family="cmss8" font-size="8" transform="translate(-600.033 391.81)">abno</text><text x="992.576" y="179.933" font-family="cmss8" font-size="8" transform="translate(-600.033 391.81)">rmal-</text><text x="913.185" y="189.433" font-family="cmss8" font-size="8" transform="translate(-600.033 391.81)">it</text><text x="918.046" y="189.433" font-family="cmss8" font-size="8" transform="translate(-600.033 391.81)">y</text><text x="921.254" y="189.433" font-family="cmss8" font-size="8" transform="translate(-600.033 391.81)">,</text><text x="926.448" y="189.433" font-family="cmss8" font-size="8" transform="translate(-600.033 391.81)">chest</text><text x="947.554" y="189.433" font-family="cmss8" font-size="8" transform="translate(-600.033 391.81)">pain</text><text x="965.276" y="189.433" font-family="cmss8" font-size="8" transform="translate(-600.033 391.81)">o</text><text x="969.29" y="189.433" font-family="cmss8" font-size="8" transform="translate(-600.033 391.81)">r</text><text x="975.026" y="189.433" font-family="cmss8" font-size="8" transform="translate(-600.033 391.81)">dyspnea.</text></g></g><g fill="#fff" stroke="#000" stroke-width=".5"><path d="M958.853 537.23H828.539c-.942 0-1.707.764-1.707 1.707v17.923c0 .943.765 1.707 1.707 1.707h130.314c.943 0 1.707-.764 1.707-1.707v-17.923c0-.943-.764-1.707-1.707-1.707Zm-132.02 21.337"/><g fill="#000" stroke="none"><text x="1435.343" y="158.088" font-family="cmss8" font-size="8" transform="translate(-600.033 391.81)">If</text><text x="1443.135" y="158.088" font-family="cmss8" font-size="8" transform="translate(-600.033 391.81)">no</text><text x="1454.607" y="158.088" font-family="cmss8" font-size="8" transform="translate(-600.033 391.81)">clea</text><text x="1468.037" y="158.088" font-family="cmss8" font-size="8" transform="translate(-600.033 391.81)">r</text><text x="1473.773" y="158.088" font-family="cmss8" font-size="8" transform="translate(-600.033 391.81)">acute</text><text x="1495.704" y="158.088" font-family="cmss8" font-size="8" transform="translate(-600.033 391.81)">p</text><text x="1499.857" y="158.088" font-family="cmss8" font-size="8" transform="translate(-600.033 391.81)">rovoking</text><text x="1532.829" y="158.088" font-family="cmss8" font-size="8" transform="translate(-600.033 391.81)">cause</text></g></g><g fill="#fff" stroke="#000" stroke-width=".5"><path d="M64.806 639.846H-65.507c-.943 0-1.707.765-1.707 1.708v27.423c0 .943.764 1.707 1.707 1.707H64.806c.943 0 1.707-.764 1.707-1.707v-27.423c0-.943-.764-1.708-1.707-1.708Zm-132.02 30.838"/><g fill="#000" stroke="none"><text x="567.099" y="260.704" font-family="cmss8" font-size="8" transform="translate(-600.033 391.81)">T</text><text x="572.197" y="260.704" font-family="cmss8" font-size="8" transform="translate(-600.033 391.81)">ypical</text><text x="595.252" y="260.704" font-family="cmss8" font-size="8" transform="translate(-600.033 391.81)">pattern</text><text x="623.766" y="260.704" font-family="cmsy8" font-size="8" transform="translate(-600.033 391.81)">!</text><text x="570.23" y="270.204" font-family="cmss8" font-size="8" transform="translate(-600.033 391.81)">clinical</text><text x="597.202" y="270.204" font-family="cmss8" font-size="8" transform="translate(-600.033 391.81)">diagnosis</text></g></g><g fill="#fff" stroke="#000" stroke-width=".5"><path d="M244.659 639.846H114.345c-.943 0-1.707.765-1.707 1.708v46.423c0 .943.764 1.707 1.707 1.707H244.66c.942 0 1.707-.764 1.707-1.707v-46.423c0-.943-.765-1.708-1.707-1.708Zm-132.021 49.838"/><g fill="#000" stroke="none"><text x="727.694" y="260.704" font-family="cmss8" font-size="8" transform="translate(-600.033 391.81)">Evaluate</text><text x="760.972" y="260.704" font-family="cmss8" font-size="8" transform="translate(-600.033 391.81)">hyp</text><text x="773.903" y="260.704" font-family="cmss8" font-size="8" transform="translate(-600.033 391.81)">ovolemia,</text><text x="810.181" y="260.704" font-family="cmss8" font-size="8" transform="translate(-600.033 391.81)">bleed-</text><text x="732.978" y="270.204" font-family="cmss8" font-size="8" transform="translate(-600.033 391.81)">ing,</text><text x="748.839" y="270.204" font-family="cmss8" font-size="8" transform="translate(-600.033 391.81)">medications</text><text x="793.473" y="270.204" font-family="cmss8" font-size="8" transform="translate(-600.033 391.81)">o</text><text x="797.487" y="270.204" font-family="cmss8" font-size="8" transform="translate(-600.033 391.81)">r</text><text x="803.222" y="270.204" font-family="cmss8" font-size="8" transform="translate(-600.033 391.81)">dysau-</text><text x="737.531" y="279.704" font-family="cmss8" font-size="8" transform="translate(-600.033 391.81)">tonomia;</text><text x="771.545" y="279.704" font-family="cmss8" font-size="8" transform="translate(-600.033 391.81)">extend</text><text x="797.698" y="279.704" font-family="cmss8" font-size="8" transform="translate(-600.033 391.81)">testing</text><text x="736.374" y="289.204" font-family="cmss8" font-size="8" transform="translate(-600.033 391.81)">if</text><text x="743.832" y="289.204" font-family="cmss8" font-size="8" transform="translate(-600.033 391.81)">symptoms</text><text x="782.307" y="289.204" font-family="cmss8" font-size="8" transform="translate(-600.033 391.81)">o</text><text x="786.793" y="289.204" font-family="cmss8" font-size="8" transform="translate(-600.033 391.81)">ccur</text><text x="804.474" y="289.204" font-family="cmss8" font-size="8" transform="translate(-600.033 391.81)">later.</text></g></g><g fill="#fff" stroke="#000" stroke-width=".5"><path d="M424.511 639.846H294.197c-.942 0-1.707.765-1.707 1.708v27.423c0 .943.765 1.707 1.707 1.707h130.314c.943 0 1.707-.764 1.707-1.707v-27.423c0-.943-.764-1.708-1.707-1.708Zm-132.02 30.838"/><g fill="#000" stroke="none"><text x="924.42" y="260.704" font-family="cmss8" font-size="8" transform="translate(-600.033 391.81)">Structural</text><text x="962.587" y="260.704" font-family="cmss8" font-size="8" transform="translate(-600.033 391.81)">suspicion</text><text x="922.943" y="270.204" font-family="cmsy8" font-size="8" transform="translate(-600.033 391.81)">!</text><text x="934.276" y="270.204" font-family="cmss8" font-size="8" transform="translate(-600.033 391.81)">echo</text><text x="950.707" y="270.204" font-family="cmss8" font-size="8" transform="translate(-600.033 391.81)">ca</text><text x="958.332" y="270.204" font-family="cmss8" font-size="8" transform="translate(-600.033 391.81)">rdiography</text></g></g><g fill="#fff" stroke="#000" stroke-width=".5"><path d="M667.01 639.846H536.695c-.943 0-1.707.765-1.707 1.708v36.923c0 .943.764 1.707 1.707 1.707h130.313c.943 0 1.707-.764 1.707-1.707v-36.923c0-.943-.764-1.708-1.707-1.708Zm-132.021 40.338"/><g fill="#000" stroke="none"><text x="1159.023" y="260.704" font-family="cmss8" font-size="8" transform="translate(-600.033 391.81)">Arrhythmic</text><text x="1201.648" y="260.704" font-family="cmss8" font-size="8" transform="translate(-600.033 391.81)">suspicion</text><text x="1236.248" y="260.704" font-family="cmsy8" font-size="8" transform="translate(-600.033 391.81)">!</text><text x="1152.108" y="270.204" font-family="cmss8" font-size="8" transform="translate(-600.033 391.81)">ambulato</text><text x="1184.914" y="270.204" font-family="cmss8" font-size="8" transform="translate(-600.033 391.81)">ry</text><text x="1194.566" y="270.204" font-family="cmss8" font-size="8" transform="translate(-600.033 391.81)">ECG</text><text x="1213.594" y="270.204" font-family="cmss8" font-size="8" transform="translate(-600.033 391.81)">monito</text><text x="1238.094" y="270.204" font-family="cmss8" font-size="8" transform="translate(-600.033 391.81)">ring</text><text x="1150.747" y="279.704" font-family="cmss8" font-size="8" transform="translate(-600.033 391.81)">acco</text><text x="1166.4" y="279.704" font-family="cmss8" font-size="8" transform="translate(-600.033 391.81)">rding</text><text x="1187.191" y="279.704" font-family="cmss8" font-size="8" transform="translate(-600.033 391.81)">to</text><text x="1197.344" y="279.704" font-family="cmss8" font-size="8" transform="translate(-600.033 391.81)">event</text><text x="1219.108" y="279.704" font-family="cmss8" font-size="8" transform="translate(-600.033 391.81)">frequency</text></g></g><g fill="#fff" stroke="#000" stroke-width=".6"><path d="M805.492 692.396H981.9v-53.972H805.492Z"/><g fill="#000" stroke="none"><text x="1446.474" y="260.704" font-family="cmssbx10" font-size="8" transform="translate(-619.95 391.81)">ELECTROENCEPHALOGRAPHY</text><text x="1573.974" y="260.704" font-family="cmssbx10" font-size="8" transform="translate(-619.95 391.81)">+</text><text x="1450.918" y="270.204" font-family="cmssbx10" font-size="8" transform="translate(-619.95 391.81)">STRUCTURAL</text><text x="1509.974" y="270.204" font-family="cmssbx10" font-size="8" transform="translate(-619.95 391.81)">NEUROIMA</text><text x="1555.641" y="270.204" font-family="cmssbx10" font-size="8" transform="translate(-619.95 391.81)">GING</text><text x="1463.646" y="282.55" font-family="cmss8" font-size="8" transform="translate(-619.95 391.81)">MRI</text><text x="1481.757" y="282.55" font-family="cmss8" font-size="8" transform="translate(-619.95 391.81)">p</text><text x="1485.91" y="282.55" font-family="cmss8" font-size="8" transform="translate(-619.95 391.81)">referred;</text><text x="1518.132" y="282.55" font-family="cmss8" font-size="8" transform="translate(-619.95 391.81)">CT</text><text x="1532.202" y="282.55" font-family="cmss8" font-size="8" transform="translate(-619.95 391.81)">fo</text><text x="1538.813" y="282.55" font-family="cmss8" font-size="8" transform="translate(-619.95 391.81)">r</text><text x="1544.549" y="282.55" font-family="cmss8" font-size="8" transform="translate(-619.95 391.81)">acute</text><text x="1473.16" y="292.05" font-family="cmss8" font-size="8" transform="translate(-619.95 391.81)">intracranial</text><text x="1515.757" y="292.05" font-family="cmss8" font-size="8" transform="translate(-619.95 391.81)">evaluation.</text></g></g><g fill="#fff" stroke="#000" stroke-width=".5"><path d="M958.853 729.935H828.539c-.942 0-1.707.764-1.707 1.707v36.923c0 .943.765 1.707 1.707 1.707h130.314c.943 0 1.707-.764 1.707-1.707v-36.923c0-.943-.764-1.707-1.707-1.707Zm-132.02 40.337"/><g fill="#000" stroke="none"><text x="1446.541" y="350.793" font-family="cmss8" font-size="8" transform="translate(-600.033 391.81)">No</text><text x="1456.555" y="350.793" font-family="cmss8" font-size="8" transform="translate(-600.033 391.81)">rmal</text><text x="1475.152" y="350.793" font-family="cmss8" font-size="8" transform="translate(-600.033 391.81)">electro</text><text x="1498.972" y="350.793" font-family="cmss8" font-size="8" transform="translate(-600.033 391.81)">encephalog-</text><text x="1460.565" y="360.293" font-family="cmss8" font-size="8" transform="translate(-600.033 391.81)">raphy</text><text x="1483.079" y="360.293" font-family="cmss8" font-size="8" transform="translate(-600.033 391.81)">do</text><text x="1491.954" y="360.293" font-family="cmss8" font-size="8" transform="translate(-600.033 391.81)">es</text><text x="1501.824" y="360.293" font-family="cmss8" font-size="8" transform="translate(-600.033 391.81)">not</text><text x="1516.365" y="360.293" font-family="cmss8" font-size="8" transform="translate(-600.033 391.81)">ex-</text><text x="1453.989" y="369.793" font-family="cmss8" font-size="8" transform="translate(-600.033 391.81)">clude</text><text x="1475.183" y="369.793" font-family="cmss8" font-size="8" transform="translate(-600.033 391.81)">epileptic</text><text x="1507.281" y="369.793" font-family="cmss8" font-size="8" transform="translate(-600.033 391.81)">seizure.</text></g></g></g><g stroke="#fff" stroke-width="2.2"><path fill="none" d="M601.853-39.784v29.177"/><path fill="#fff" stroke-width="2.177" d="m601.853-5.896 2.392-6.285-2.392 2.118-2.393-2.118Z"/></g><g stroke-width=".8"><path fill="none" d="M601.853-39.784v32.863"/><path d="m601.853-3.935 1.576-4.169-1.576 1.383-1.577-1.383Z"/></g><g stroke="#fff" stroke-width="2.2"><path fill="none" d="M601.853 53.777V82.83"/><path fill="#fff" stroke-width="2.177" d="m601.853 87.541 2.392-6.285-2.392 2.118-2.393-2.118Z"/></g><g stroke-width=".8"><path fill="none" d="M601.853 53.777v32.738"/><path d="m601.853 89.502 1.576-4.17-1.576 1.383-1.577-1.382Z"/></g><g stroke="#fff" stroke-width="2.2"><path fill="none" d="M521.254 127.44H498.49v73.664H187.313"/><path fill="#fff" stroke-width="2.177" d="m182.602 201.104 6.285 2.393-2.118-2.393 2.118-2.392Z"/></g><g stroke-width=".8"><path fill="none" d="M521.254 127.44H498.49v73.664H183.628"/><path d="m180.641 201.104 4.17 1.577-1.383-1.577 1.382-1.576Z"/><g fill="#fff"><path stroke="none" d="M485.957 163.872h25.068v-7.638h-25.068Z"/><g fill="#000" stroke="none"><text x="471.345" y="350.793" font-family="cmsy7" font-size="7" transform="translate(15.612 -188.31)">¼</text><text x="479.872" y="350.793" font-family="cmr7" font-size="7" transform="translate(15.612 -188.31)">75%</text></g></g></g><g stroke="#fff" stroke-width="2.2"><path fill="none" d="M601.853 164.24v29.053"/><path fill="#fff" stroke-width="2.177" d="m601.853 198.004 2.392-6.285-2.392 2.118-2.393-2.118Z"/></g><g stroke-width=".8"><path fill="none" d="M601.853 164.24v32.739"/><path d="m601.853 199.965 1.576-4.169-1.576 1.383-1.577-1.383Z"/><g fill="#fff"><path stroke="none" d="M576.385 186.492h25.068v-7.64h-25.068Z"/><g fill="#000" stroke="none"><text x="471.345" y="350.793" font-family="cmsy7" font-size="7" transform="translate(106.04 -165.69)">¼</text><text x="479.872" y="350.793" font-family="cmr7" font-size="7" transform="translate(106.04 -165.69)">18%</text></g></g></g><g stroke="#fff" stroke-width="2.2"><path fill="none" d="M682.452 127.44h22.762v73.664h180.67"/><path fill="#fff" stroke-width="2.177" d="m890.596 201.104-6.285-2.392 2.118 2.392-2.118 2.393Z"/></g><g stroke-width=".8"><path fill="none" d="M682.452 127.44h22.762v73.664H889.57"/><path d="m892.557 201.104-4.17-1.576 1.383 1.576-1.382 1.577Z"/><g fill="#fff"><path stroke="none" d="M694.673 163.872h21.082v-7.638h-21.082Z"/><g fill="#000" stroke="none"><text x="471.345" y="350.793" font-family="cmsy7" font-size="7" transform="translate(224.327 -188.31)">¼</text><text x="479.872" y="350.793" font-family="cmr7" font-size="7" transform="translate(224.327 -188.31)">7%</text></g></g></g><g stroke="#fff" stroke-width="2.2"><path fill="none" d="M179.502 257.232v51.515h345.953"/><path fill="#fff" stroke-width="2.177" d="m530.166 308.747-6.285-2.392 2.118 2.392-2.118 2.393Z"/></g><g stroke-width=".8"><path fill="none" d="M179.502 257.232v51.515H529.14"/><path d="m532.127 308.747-4.17-1.576 1.383 1.576-1.382 1.577Z"/></g><g stroke="#fff" stroke-width="2.2"><path fill="none" d="M601.853 257.232v29.177"/><path fill="#fff" stroke-width="2.177" d="m601.853 291.121 2.392-6.285-2.392 2.118-2.393-2.118Z"/></g><g stroke-width=".8"><path fill="none" d="M601.853 257.232v32.863"/><path d="m601.853 293.082 1.576-4.17-1.576 1.383-1.577-1.382Z"/></g><g stroke="#fff" stroke-width="2.2"><path fill="none" d="M893.696 255.677v53.071H678.251"/><path fill="#fff" stroke-width="2.177" d="m673.539 308.747 6.285 2.393-2.118-2.393 2.118-2.392Z"/></g><g stroke-width=".8"><path fill="none" d="M893.696 255.677v53.071H674.565"/><path d="m671.578 308.747 4.17 1.577-1.383-1.577 1.382-1.576Z"/></g><g stroke="#fff" stroke-width="2.2"><path fill="none" d="M533.266 308.747h-22.762v51.515h-323.19"/><path fill="#fff" stroke-width="2.177" d="m182.602 360.262 6.285 2.393-2.118-2.393 2.118-2.392Z"/></g><g stroke-width=".8"><path fill="none" d="M533.266 308.747h-22.762v51.515H183.628"/><path d="m180.641 360.262 4.17 1.577-1.383-1.577 1.382-1.576Z"/></g><g stroke="#fff" stroke-width="2.2"><path fill="none" d="M670.44 308.747H693.2v54.428h192.684"/><path fill="#fff" stroke-width="2.177" d="m890.596 363.175-6.285-2.393 2.118 2.393-2.118 2.392Z"/></g><g stroke-width=".8"><path fill="none" d="M670.44 308.747H693.2v54.428h196.37"/><path d="m892.557 363.175-4.17-1.577 1.383 1.577-1.382 1.576Z"/></g><g stroke="#fff" stroke-width="2.2"><path fill="none" d="M179.502 389.315v35.764"/><path fill="#fff" stroke-width="2.177" d="m179.502 429.79 2.392-6.284-2.392 2.117-2.393-2.117Z"/></g><g stroke-width=".8"><path fill="none" d="M179.502 389.315v39.45"/><path d="m179.502 431.752 1.576-4.17-1.576 1.383-1.577-1.382Z"/></g><g stroke="#fff" stroke-width="2.2"><path fill="none" d="M893.696 395.902v29.177"/><path fill="#fff" stroke-width="2.177" d="m893.696 429.79 2.393-6.284-2.393 2.117-2.392-2.117Z"/></g><g stroke-width=".8"><path fill="none" d="M893.696 395.902v32.863"/><path d="m893.696 431.752 1.577-4.17-1.577 1.383-1.576-1.382Z"/></g><g stroke="#fff" stroke-width="2.2"><path fill="none" d="M90.998 465.705H68.236v69.802H7.461"/><path fill="#fff" stroke-width="2.177" d="m2.75 535.507 6.284 2.393-2.117-2.393 2.117-2.392Z"/></g><g stroke-width=".8"><path fill="none" d="M90.998 465.705H68.236v69.802H3.776"/><path d="m.789 535.507 4.169 1.577-1.383-1.577 1.383-1.576Z"/></g><g stroke="#fff" stroke-width="2.2"><path fill="none" d="M179.502 498.519v29.177"/><path fill="#fff" stroke-width="2.177" d="m179.502 532.407 2.392-6.285-2.392 2.118-2.393-2.118Z"/></g><g stroke-width=".8"><path fill="none" d="M179.502 498.519v32.863"/><path d="m179.502 534.368 1.576-4.169-1.576 1.383-1.577-1.383Z"/></g><g stroke="#fff" stroke-width="2.2"><path fill="none" d="M268.005 465.705h22.763v69.802h60.775"/><path fill="#fff" stroke-width="2.177" d="m356.254 535.507-6.285-2.392 2.118 2.392-2.118 2.393Z"/></g><g stroke-width=".8"><path fill="none" d="M268.005 465.705h22.763v69.802h64.46"/><path d="m358.215 535.507-4.169-1.576 1.383 1.576-1.383 1.577Z"/></g><g stroke="#fff" stroke-width="2.2"><path fill="none" d="M-.35 601.135v30.65"/><path fill="#fff" stroke-width="2.177" d="m-.35 636.497 2.392-6.285-2.392 2.117-2.393-2.117Z"/></g><g stroke-width=".8"><path fill="none" d="M-.35 601.135v34.336"/><path d="m-.35 638.457 1.576-4.169-1.576 1.383-1.577-1.383Z"/></g><g stroke="#fff" stroke-width="2.2"><path fill="none" d="M179.502 591.635v40.15"/><path fill="#fff" stroke-width="2.177" d="m179.502 636.497 2.392-6.285-2.392 2.117-2.393-2.117Z"/></g><g stroke-width=".8"><path fill="none" d="M179.502 591.635v43.836"/><path d="m179.502 638.457 1.576-4.169-1.576 1.383-1.577-1.383Z"/></g><g stroke="#fff" stroke-width="2.2"><path fill="none" d="M359.354 591.635v40.15"/><path fill="#fff" stroke-width="2.177" d="m359.354 636.497 2.393-6.285-2.393 2.117-2.392-2.117Z"/></g><g stroke-width=".8"><path fill="none" d="M359.354 591.635v43.836"/><path d="m359.354 638.457 1.577-4.169-1.577 1.383-1.576-1.383Z"/></g><g stroke="#fff" stroke-width="2.2"><path fill="none" d="M427.94 563.571h22.763v76.025h143.338"/><path fill="#fff" stroke-width="2.177" d="m598.753 639.596-6.285-2.392 2.117 2.392-2.117 2.393Z"/></g><g stroke-width=".8"><path fill="none" d="M427.94 563.571h22.763v76.025h147.024"/><path d="m600.713 639.596-4.169-1.576 1.383 1.576-1.383 1.577Z"/></g><g stroke="#fff" stroke-width="2.2"><path fill="none" d="M893.696 498.519v30.65"/><path fill="#fff" stroke-width="2.177" d="m893.696 533.88 2.393-6.285-2.393 2.118-2.392-2.118Z"/></g><g stroke-width=".8"><path fill="none" d="M893.696 498.519v34.335"/><path d="m893.696 535.84 1.577-4.168-1.577 1.382-1.576-1.382Z"/></g><g stroke="#fff" stroke-width="2.2"><path fill="none" d="M893.696 558.817v71.495"/><path fill="#fff" stroke-width="2.177" d="m893.696 635.024 2.393-6.285-2.393 2.118-2.392-2.118Z"/></g><g stroke-width=".8"><path fill="none" d="M893.696 558.817v75.181"/><path d="m893.696 636.985 1.577-4.17-1.577 1.383-1.576-1.382Z"/></g><g stroke="#fff" stroke-width="2.2"><path fill="none" d="M893.696 692.696v29.177"/><path fill="#fff" stroke-width="2.177" d="m893.696 726.585 2.393-6.285-2.393 2.118-2.392-2.118Z"/></g><g stroke-width=".8"><path fill="none" d="M893.696 692.696v32.863"/><path d="m893.696 728.546 1.577-4.17-1.577 1.383-1.576-1.382Z"/></g></g></svg>